<svg width="24" height="25" viewBox="0 0 24 25" fill="none" xmlns="http://www.w3.org/2000/svg">
<rect y="0.378906" width="24" height="24" rx="12" fill="white"/>
<g clip-path="url(#clip0_7_77)">
<g clip-path="url(#clip1_7_77)">
<g clip-path="url(#clip2_7_77)">
<path d="M10.6011 14.7584L10.3861 17.8297C10.6938 17.8297 10.8271 17.6954 10.9868 17.5342L12.4293 16.1346L15.4184 18.3572C15.9665 18.6673 16.3527 18.5041 16.5005 17.8452L18.4625 8.51053C18.6364 7.68785 18.17 7.36559 17.6358 7.5672L6.10357 12.0503C5.31645 12.3604 5.32838 12.8059 5.96976 13.0078L8.91819 13.939L15.7665 9.58793C16.0887 9.37111 16.3817 9.49125 16.1407 9.70781L10.6011 14.7584Z" fill="#023C93"/>
</g>
</g>
</g>
<defs>
<clipPath id="clip0_7_77">
<rect width="13" height="11" fill="white" transform="translate(5.5 7.50879)"/>
</clipPath>
<clipPath id="clip1_7_77">
<rect width="13" height="11" fill="white" transform="translate(5.5 7.50879)"/>
</clipPath>
<clipPath id="clip2_7_77">
<rect width="13" height="11" fill="white" transform="translate(5.5 7.50879)"/>
</clipPath>
</defs>
</svg>
