<svg width="24" height="25" viewBox="0 0 24 25" fill="none" xmlns="http://www.w3.org/2000/svg">
<rect y="0.378906" width="24" height="24" rx="12" fill="white"/>
<g clip-path="url(#clip0_7_71)">
<g clip-path="url(#clip1_7_71)">
<g clip-path="url(#clip2_7_71)">
<mask id="mask0_7_71" style="mask-type:luminance" maskUnits="userSpaceOnUse" x="5" y="7" width="14" height="12">
<path d="M18.1071 7.93726H5.89282V18.1159H18.1071V7.93726Z" fill="white"/>
</mask>
<g mask="url(#mask0_7_71)">
<path d="M6.36053 11.5268C6.32455 12.4953 6.95715 13.7212 8.33628 14.0768C7.96451 14.1779 7.60774 14.1718 7.22398 14.1227C7.65271 15.2169 8.41723 15.8084 9.56251 15.9157C8.4652 16.7586 7.25396 17.0957 5.89282 16.9731C5.91981 16.9976 5.9318 17.0099 5.94379 17.016C6.49844 17.3715 7.08907 17.6413 7.71567 17.8282C8.71104 18.1194 9.7214 18.1868 10.7468 18.0489C11.8321 17.9049 12.8484 17.5493 13.7359 16.8965C15.8436 15.3456 16.8629 13.2186 16.8659 10.5736C16.8659 10.5184 16.9019 10.451 16.9409 10.4142C17.1238 10.2426 17.3246 10.0924 17.4955 9.91156C17.7114 9.68169 17.9033 9.43037 18.1041 9.18824C18.0951 9.17904 18.0862 9.16678 18.0772 9.15759C17.6454 9.33842 17.2047 9.47328 16.734 9.51925C17.2167 9.17291 17.5735 8.73463 17.7654 8.13391C17.7114 8.16149 17.6784 8.17682 17.6484 8.19521C17.2137 8.44346 16.752 8.62123 16.2663 8.72237C16.2183 8.73157 16.1494 8.71318 16.1134 8.67946C15.4088 8.00825 14.5903 7.79064 13.6609 8.03583C12.6655 8.29635 11.874 9.30164 11.8441 10.3498C11.8381 10.592 11.8591 10.8372 11.868 11.0946C9.79036 10.9506 8.07544 10.0495 6.7173 8.41282C6.43248 8.91853 6.32155 9.44876 6.39351 10.0096C6.48645 10.7605 6.84622 11.3613 7.47882 11.8302C7.05909 11.821 6.70831 11.7045 6.36053 11.5268Z" fill="#ECCAAA"/>
<path d="M6.36144 11.5269C6.70622 11.7047 7.05999 11.8211 7.47673 11.8334C6.84713 11.3645 6.48736 10.7637 6.39142 10.0128C6.32246 9.44891 6.43339 8.91868 6.71821 8.41296C8.07635 10.0496 9.79127 10.9507 11.872 11.0948C11.863 10.8373 11.842 10.5921 11.848 10.35C11.8779 9.30179 12.6694 8.2965 13.6648 8.03598C14.5972 7.79385 15.4157 8.00839 16.1173 8.67961C16.1533 8.71333 16.2222 8.73172 16.2702 8.72252C16.7589 8.62138 17.2176 8.44361 17.6523 8.19535C17.6823 8.17697 17.7153 8.16164 17.7693 8.13406C17.5774 8.73478 17.2206 9.17306 16.7379 9.5194C17.2056 9.47342 17.6493 9.33857 18.0811 9.15774C18.0901 9.16693 18.0991 9.17919 18.108 9.18839C17.9072 9.43052 17.7153 9.68184 17.4994 9.91171C17.3285 10.0925 17.1277 10.2427 16.9448 10.4143C16.9058 10.4511 16.8698 10.5186 16.8698 10.5737C16.8668 13.2218 15.8475 15.3458 13.7398 16.8966C12.8523 17.5495 11.836 17.905 10.7507 18.0491C9.72531 18.187 8.71495 18.1196 7.71958 17.8284C7.09297 17.6445 6.50235 17.3717 5.9477 17.0162C5.9357 17.007 5.92371 16.9978 5.89673 16.9733C7.25787 17.0989 8.4691 16.7618 9.56941 15.9159C8.42113 15.8086 7.65662 15.2171 7.23089 14.1229C7.61464 14.1719 7.96842 14.175 8.34318 14.0769C6.95806 13.7214 6.32546 12.4954 6.36144 11.5269Z" fill="#023C93"/>
</g>
</g>
</g>
</g>
<defs>
<clipPath id="clip0_7_71">
<rect width="14" height="11" fill="white" transform="translate(5 7.50879)"/>
</clipPath>
<clipPath id="clip1_7_71">
<rect width="14" height="11" fill="white" transform="translate(5 7.50879)"/>
</clipPath>
<clipPath id="clip2_7_71">
<rect width="14" height="11" fill="white" transform="translate(5 7.50879)"/>
</clipPath>
</defs>
</svg>
