<svg width="24" height="25" viewBox="0 0 24 25" fill="none" xmlns="http://www.w3.org/2000/svg">
<rect y="0.378906" width="24" height="24" rx="12" fill="white"/>
<g clip-path="url(#clip0_7_60)">
<g clip-path="url(#clip1_7_60)">
<g clip-path="url(#clip2_7_60)">
<mask id="mask0_7_60" style="mask-type:luminance" maskUnits="userSpaceOnUse" x="8" y="6" width="8" height="13">
<path d="M15.3931 6.58032H8.60742V18.7946H15.3931V6.58032Z" fill="white"/>
</mask>
<g mask="url(#mask0_7_60)">
<path d="M14.2717 6.58032C14.4937 6.60001 14.7157 6.60985 14.927 6.62953C15.075 6.63938 15.2336 6.65906 15.3815 6.6689C15.3815 7.31849 15.3815 7.95824 15.3815 8.60784C15.3287 8.60784 15.2864 8.60784 15.2441 8.60784C14.7896 8.61768 14.3457 8.60784 13.8912 8.62752C13.3416 8.65705 13.0351 8.93263 13.0139 9.44443C12.9928 9.96607 13.0034 10.4877 13.0034 11.0094C13.0034 11.0192 13.0139 11.029 13.0139 11.0586C13.7644 11.0586 14.5254 11.0586 15.297 11.0586C15.1913 11.7869 15.0962 12.5054 15.001 13.2337C14.3351 13.2337 13.6798 13.2337 13.0139 13.2337C13.0139 13.2829 13.0034 13.3124 13.0034 13.3518C13.0034 15.1431 13.0034 16.9344 13.0034 18.7257C13.0034 18.7553 13.0034 18.7848 13.0139 18.8045C12.2106 18.8045 11.4074 18.8045 10.6146 18.8045C10.6146 18.7553 10.6041 18.706 10.6041 18.647C10.6041 16.8951 10.6041 15.153 10.6041 13.401C10.6041 13.3518 10.6041 13.3026 10.6041 13.2337C9.9276 13.2337 9.27228 13.2337 8.59583 13.2337C8.59583 12.5054 8.59583 11.7869 8.59583 11.0586C9.26171 11.0586 9.91703 11.0586 10.6041 11.0586C10.6041 10.9995 10.6041 10.9503 10.6041 10.9011C10.6041 10.3302 10.5935 9.75938 10.6146 9.19837C10.6463 8.50941 10.8577 7.88935 11.3756 7.37755C11.7667 6.98386 12.2635 6.76733 12.8131 6.65906C12.9611 6.62953 13.1091 6.60985 13.2676 6.58032C13.6058 6.58032 13.9441 6.58032 14.2717 6.58032Z" fill="#023C93"/>
</g>
</g>
</g>
</g>
<defs>
<clipPath id="clip0_7_60">
<rect width="7" height="13" fill="white" transform="translate(8.5 6.50879)"/>
</clipPath>
<clipPath id="clip1_7_60">
<rect width="7" height="13" fill="white" transform="translate(8.5 6.50879)"/>
</clipPath>
<clipPath id="clip2_7_60">
<rect width="7" height="13" fill="white" transform="translate(8.5 6.50879)"/>
</clipPath>
</defs>
</svg>
